<?xml version="1.0" encoding="UTF-8"?>
<svg id="Camada_1" xmlns="http://www.w3.org/2000/svg" version="1.1" xmlns:xlink="http://www.w3.org/1999/xlink" viewBox="0 0 2400 1792">
  <!-- Generator: Adobe Illustrator 30.2.1, SVG Export Plug-In . SVG Version: 2.1.1 Build 1)  -->
  <defs>
    <style>
      .st0 {
        fill: url(#Gradiente_sem_nome_26);
      }

      .st1 {
        fill: #fff;
      }

      .st2 {
        fill: url(#Gradiente_sem_nome_23);
      }

      .st3 {
        fill: #f9e139;
      }

      .st4 {
        fill: none;
      }

      .st5 {
        clip-path: url(#clippath-1);
      }

      .st6 {
        fill: url(#Gradiente_sem_nome_35);
      }

      .st7 {
        fill: #03919f;
      }

      .st8 {
        fill: url(#Gradiente_sem_nome_29);
      }

      .st9 {
        fill: #f0be44;
      }

      .st10 {
        clip-path: url(#clippath-2);
      }

      .st11 {
        clip-path: url(#clippath);
      }
    </style>
    <clipPath id="clippath">
      <rect class="st4" x="-2420" width="2400" height="1792"/>
    </clipPath>
    <clipPath id="clippath-1">
      <rect class="st4" width="2400" height="1792"/>
    </clipPath>
    <clipPath id="clippath-2">
      <rect class="st4" x="2420" width="2400" height="1792"/>
    </clipPath>
    <linearGradient id="Gradiente_sem_nome_23" data-name="Gradiente sem nome 23" x1="3605.6" y1="450.8" x2="3332.6" y2="723.9" gradientUnits="userSpaceOnUse">
      <stop offset="0" stop-color="#dbdbdb"/>
      <stop offset="1" stop-color="#fff"/>
    </linearGradient>
    <linearGradient id="Gradiente_sem_nome_26" data-name="Gradiente sem nome 26" x1="3897.5" y1="738.9" x2="3636.6" y2="478" gradientUnits="userSpaceOnUse">
      <stop offset="0" stop-color="#dbdbdb"/>
      <stop offset="1" stop-color="#fff"/>
    </linearGradient>
    <linearGradient id="Gradiente_sem_nome_35" data-name="Gradiente sem nome 35" x1="3358.9" y1="717" x2="3618.1" y2="976.1" gradientUnits="userSpaceOnUse">
      <stop offset="0" stop-color="#dbdbdb"/>
      <stop offset="1" stop-color="#fff"/>
    </linearGradient>
    <linearGradient id="Gradiente_sem_nome_29" data-name="Gradiente sem nome 29" x1="3629.9" y1="993.1" x2="3898" y2="725.1" gradientUnits="userSpaceOnUse">
      <stop offset="0" stop-color="#dbdbdb"/>
      <stop offset="1" stop-color="#fff"/>
    </linearGradient>
  </defs>
  <g class="st11">
    <g>
      <g>
        <path class="st7" d="M-2133.3,1141.3c-3,.6-6.1,3.8-8.1,7.7l-29.8,60.4-70.1,142.8-63.1-128.2-38.4-77.5c-2.9-4.4-6.5-6.2-11.8-5.8-6,.4-11.8,4.4-11.8,11.5v226.6c-.1,8.4,4.1,14.7,12.4,15,7.8.2,13.4-5.4,13.4-14l.3-170.5,86.8,176.4c2.5,5.1,6.9,8,11.6,8.2,4.8.2,9.3-2.3,11.8-6.7,6.7-11.8,11.7-23.6,17.8-36l69.5-141.9.5,171c0,7.8,5,12.6,11.6,13.4,5.3.7,14-2.8,14-10l.2-228.7c0-4.7-1.5-8.7-4.5-11.7-3.2-3.1-7.7-3.1-12.4-2.1Z"/>
        <path class="st7" d="M-795.8,1141.9c-5.6-2.2-12.7-1.4-15.6,3.8-3.2,5.7-4.2,11.6-6,18.1l-46.8,168.8c-5.7-16.1-8.9-31.1-13.2-47l-36-133.4c-1.9-7-6.7-11.4-13.5-11.2-6.4.2-10.5,4.3-12.3,11.1l-31.2,116.7-17.5,64-50.3-182c-2.2-7.9-8.6-11-15.8-9.7-5.8,1.1-11.2,7.7-9.2,14.9l29.2,106.7,33.6,121c1.9,6.9,7.3,10.5,13.5,10.3,6.5-.2,10.9-4.1,12.8-11.1l42-157.4c2.1-7.7,3-14.4,6.3-22.3l24.6,91.7,24.3,88.6c1.6,5.9,5.7,10,11.1,10.3,5.5.3,11.8-1.7,13.5-7.8l46.8-168.8,16.4-60.4c1.8-6.5-2.2-13.1-6.7-14.9Z"/>
        <path class="st9" d="M-1132.8,1254.8c30.6-24.6,28.8-67.3,1.9-92.4-27.5-23.1-69.2-19.9-91.9,8.1-20.1,24.9-16.7,64.4,10.2,85.2-9.4,4.9-15.4,10.5-21,18.1-19,25.6-19.4,60.3-2,87.1,12.9,19.8,33.7,31.8,57.9,32.6,10.5.3,20.2,0,29.9-3.3,28.9-9.8,49-36.9,50.5-67.1,1.5-28.2-10.6-53.4-35.6-68.3ZM-1207.9,1195.4c6.1-17.8,24.8-27.5,42.8-23.9,19.1,3.8,30.8,20.5,29.3,39.6-1.4,17.5-13.5,32.1-32,33.8-18.8,1.8-35.7-9.1-40.7-26.9-2-7.1-1.7-15.6.7-22.6ZM-1167.3,1370.3c-18.2,1.8-36-6.8-45.9-21.6-10.1-15.1-12.1-34.7-4.9-51.4,8.7-20,30.1-31.9,51.5-29.2,20.6,2.6,38.4,17.8,42.6,39.2,5.8,28.9-12.2,60-43.4,63Z"/>
        <path class="st7" d="M-1958.4,1226.2c-17.2-6.8-35.9-7-53.6-2.8-15.2,3.6-27.9,11.1-39.1,21.8-32.3,30.8-35.7,80.1-9.1,115.6,17.3,23.2,43.9,34.8,73,33.3,20.4-1.1,40.2-8.8,54.4-23.5,5.3-5.5,4.6-13.5-.4-18.1-12.3-11.3-19.9,7-35.6,13.1-36.7,14.1-74.6-7.5-83-45.7l135.2-.3c7.7,0,12.4-5.3,12.4-12.8,0-35.1-21.3-67.6-54.1-80.6ZM-2051.5,1295.2c5.6-30,33-51.1,63.4-50,28.5,1,52.4,20.5,57.9,49.9h-121.3Z"/>
        <path class="st7" d="M-287.8,1332.2l-39.3-44.8,70.9-46.1c5.8-3.8,8.6-9.8,5.7-16.1-2.3-5.1-8.9-8.8-15-6.9-6.1,1.9-11.1,5.6-16.5,9.1l-50.3,32.7-40.2,26.4-.6-25-.8-109.5c0-7.5-7-11.8-13.2-11.5-5.7.3-12,5.3-12,13l-.3,226.1c0,5.3,1.9,9,5.1,11.3,3.9,2.8,8.1,3.2,12.7,1.7,4.8-1.5,8-5.3,8.2-10.7.6-21,.5-41.6-.3-63.1l24.8-16.7,47,53,28.7,33.3c4.4,5.1,11.6,7,17.7,4.3,3.6-1.6,6.1-5,6.7-7.8,1-4.3-.2-7.8-3.3-11.2l-35.8-41.6Z"/>
        <path class="st7" d="M-1475.1,1221.4c-44.9,6.5-77,45.8-74.4,91.7,1.9,32.6,21.8,61.7,52,74.5,30.6,13,72.8,6.8,96.1-19.6,1.9,5.3.4,9.3.9,13.9.8,6.9,5.8,11.6,12.6,11.7,5.5,0,12.8-3.8,12.8-10.8l-.2-80.6c-.1-51.8-49.4-88.1-99.9-80.8ZM-1400.6,1309.5c-1,38.3-34.5,65.7-72,59.5-32.3-5.3-54.3-35.3-51-68.2,1.5-15.2,8.7-29,19.5-39.4,11.6-11.2,25.7-16,41.6-16,36.2,0,62.8,28.7,61.8,64.2Z"/>
        <path class="st7" d="M-685.4,1220.7c-29.7,1.4-55.4,16.2-70.7,41.5-17.2,28.3-17.4,62.3,0,90.6,16.6,27.3,45.6,42.4,77.9,41.3,27.2-1,52.3-13.3,68.3-36.4,20.9-30.2,20.7-70.6.2-100.1-17.6-25.3-45.1-38.3-75.5-36.9ZM-635.7,1349.3c-13.8,15.5-31.8,22.3-53.4,19.9-29.2-3.3-51.6-27.3-53.5-56.1-1.4-20.5,5.6-40.3,21.1-53.2,12.5-10.4,27-15.2,43.2-14.4,12.7.7,24.9,4.4,34.9,12.4,28.2,22.6,31.6,64.7,7.8,91.4Z"/>
        <path class="st7" d="M-77.3,1326.8c-4.5-9-13.5-14-22.5-17.8-18-7.6-36.2-12.4-54.8-18-9-2.7-31.1-7.7-34.3-15.3-4.1-9.8,8.7-19.5,17.3-24,24.2-12.7,56.3-6.5,73.3,16,4.8,6.3,14.5,7.5,20,1.4,3.6-4.1,3.4-10.5.2-14.9-17.9-25-48.3-36.8-78.7-32.5-18.5,2.6-35.4,10-47.7,24.1-9.2,10.5-13.6,24.8-8.9,38.2,4,11.4,13.8,18.7,24.9,23,22.4,8.5,65.2,18.6,80.9,26.1,3.2,1.5,6.6,3.6,7.6,7.2,1.5,5.3-.9,10.7-4.8,14.5-12.5,12.2-29.3,17-46.9,15.1-17-1.8-31.6-11.6-42.2-24.6-4.5-5.5-12.1-5-16.9-1-4.9,4-6.1,11.4-1.9,17,6.1,8.1,13.5,15.1,22.2,20.5,30.1,18.5,77.4,17.2,104-9.6,12-12.1,16.7-29.8,9-45.3Z"/>
        <path class="st7" d="M-1790.5,1220.9c-19.1,1.4-36.1,7.7-49.6,22.3-4-2.9,3.5-18.4-12.2-21.8-5.1-1.1-14.8,2-14.8,9.6l-.3,150.8c0,7,6.1,11.3,11.6,11.9,5.2.5,13.8-2.3,13.8-9l.2-82.8c0-32,25.2-57.4,56.6-56.7,31.9.6,54.6,25.3,54.6,57v81.2c0,7.2,8.1,10.4,13.5,10.3,5.5-.1,12.2-4.2,12.2-10.9v-83.8c.2-46.4-39.8-81.5-85.7-78.1Z"/>
        <path class="st7" d="M-1598.3,1369.2c-18.1,1.6-33.3-10.8-33.3-29.5v-94.1c9.9-.7,19.1.6,28.5-.6,6.8-.9,10.2-7.2,9.4-13.3-.7-5.7-5.1-10.5-11.6-10.6l-26.2-.3-.4-66.7c0-7.8-5.7-14.1-13-14-6.9,0-12.9,5.6-12.9,13.3l-.5,67.4-13.9.3c-6.3.1-10,4.3-10.7,10.2-1,7.8,3.8,13.7,11.9,14.2,4.1.2,8.5-.2,12.8.4l.6,97.8c.2,31.6,30.6,55.1,66.4,49.7,5-.8,8.2-4.5,9.2-7.7,1.4-4.4.3-8.3-2.4-11.8-3.2-4.1-8.6-5.1-13.8-4.6Z"/>
        <path class="st7" d="M-439.1,1227.5c-24.4-11.7-60.7-9.1-81.8,9.9-2.8,2.5-4.9,5.1-8.5,6.6-.7-4.1,0-7.4-.4-11.2-.6-6.8-5.9-11.4-12.3-11.7-5-.2-13.1,3.2-13.1,9.8l-.7,148.9c0,4.6,1,8.4,4.1,10.9,2.8,2.2,6.2,3.5,10.4,3,5.2-.6,11.3-4,11.3-10l.6-85.8c.1-15.2,9.3-29.1,19.8-39,18.3-17.3,42.5-16.2,64.5-7.7,6.6,2.5,12.6-3.6,13.9-9.3,1.4-6.1-1.9-11.4-8-14.4Z"/>
        <path class="st7" d="M-1311.3,1368.7c-.4-16-.5-31.5,0-47.3.3-9.6.7-18.9.1-28.5-.6-9.7,0-18.6,0-28.4l.4-112.4c0-7.4-7.2-12-13-11.8-6.5.3-12.3,5.4-12.4,12.6l-.2,43.1.2,55v127.8c0,8.5,6.4,14.6,14.7,14.1,9.5-.6,18.7.8,28-.4,5.9-.7,8.4-7.1,7.9-12.1-1.4-14.9-16.5-9.5-25.8-11.8Z"/>
      </g>
      <g>
        <path class="st4" d="M-930.3,852.2h0c0,77.2-62.6,139.7-139.7,139.7h0c-52.6,0-98.4-29.1-122.2-72-2.9,7.6-6.3,15.1-10.2,22.2,5.5,8.1,11.9,15.7,18.9,22.8,30.1,30.1,70.2,46.7,112.8,46.7s82.7-16.6,112.8-46.7c30.1-30.1,46.7-70.2,46.7-112.8s-16.6-82.7-46.7-112.8c-7.2-7.2-15-13.7-23.3-19.3-6.9,3.7-14,7-21.4,9.8,43.1,23.8,72.2,69.7,72.2,122.4Z"/>
        <path class="st4" d="M-1370,742.5c-29.3,0-56.9,11.4-77.6,32.1-20.7,20.7-32.1,48.3-32.1,77.6s11.4,56.9,32.1,77.6c20.7,20.7,48.3,32.1,77.6,32.1s56.9-11.4,77.6-32.1c20.7-20.7,32.1-48.3,32.1-77.6h0v-109.7h-109.7Z"/>
        <path class="st4" d="M-1070,413.2h0c77.2,0,139.7,62.6,139.7,139.7h0c0,52.7-29.2,98.6-72.2,122.4,7.3,2.8,14.5,6.1,21.4,9.8,8.3-5.6,16.1-12.1,23.3-19.3,30.1-30.1,46.7-70.2,46.7-112.8s-16.6-82.7-46.7-112.8c-30.1-30.1-70.2-46.7-112.8-46.7s-82.7,16.6-112.8,46.7c-7.1,7.1-13.4,14.7-18.9,22.8,3.9,7.1,7.3,14.5,10.2,22.2,23.8-42.9,69.6-72,122.2-72Z"/>
        <path class="st4" d="M-1179.8,692.6v19.9h109.2c19.3,0,38-3.4,55.5-9.9-17.5-6.5-36.3-9.9-55.5-9.9h-109.2Z"/>
        <path class="st4" d="M-1260.2,712.5v-19.9h-109.2c-19.3,0-38,3.4-55.5,9.9,17.6,6.5,36.3,9.9,55.7,9.9h109Z"/>
        <path class="st4" d="M-1209.8,742.5h-20.5v109.6c0,19.6,3.5,38.6,10.2,56.4,6.7-17.8,10.2-36.8,10.2-56.4v-109.6Z"/>
        <path class="st4" d="M-1230.2,662.6h20.5v-109.6c0-19.6-3.5-38.6-10.2-56.4-6.7,17.8-10.2,36.8-10.2,56.4v109.6Z"/>
        <path class="st4" d="M-1509.7,552.9h0c0-77.2,62.6-139.7,139.7-139.7h0c52.6,0,98.4,29.1,122.2,72,2.9-7.6,6.3-15.1,10.2-22.2-5.5-8.1-11.9-15.7-18.9-22.8-30.1-30.1-70.2-46.7-112.8-46.7s-82.7,16.6-112.8,46.7c-30.1,30.1-46.7,70.2-46.7,112.8s16.6,82.7,46.7,112.8c7.2,7.2,15,13.7,23.3,19.3,6.9-3.7,14-7,21.4-9.8-43.1-23.8-72.2-69.7-72.2-122.4Z"/>
        <path class="st4" d="M-1370,992h0c-77.2,0-139.7-62.6-139.7-139.7h0c0-52.7,29.2-98.6,72.2-122.4-7.3-2.8-14.5-6.1-21.4-9.8-8.3,5.6-16.1,12.1-23.3,19.3-30.1,30.1-46.7,70.2-46.7,112.8s16.6,82.7,46.7,112.8c30.1,30.1,70.2,46.7,112.8,46.7s82.7-16.6,112.8-46.7c7.1-7.1,13.4-14.7,18.9-22.8-3.9-7.1-7.3-14.5-10.2-22.2-23.8,42.9-69.6,72-122.2,72Z"/>
        <polygon class="st4" points="-1230.2 692.6 -1230.2 712.5 -1209.8 712.5 -1209.8 712.5 -1209.8 712.5 -1209.8 692.6 -1209.8 692.6 -1230.2 692.6 -1230.2 692.6"/>
        <path class="st4" d="M-1179.8,742.5v109.6s0,0,0,0h0c0,29.4,11.4,57,32.1,77.7,20.7,20.7,48.3,32.1,77.6,32.1s56.9-11.4,77.6-32.1c20.7-20.7,32.1-48.3,32.1-77.6s-11.4-56.9-32.1-77.6c-20.7-20.7-48.3-32.1-77.6-32.1h-.5s0,0-.1,0h-109Z"/>
        <path class="st4" d="M-1260.2,662.6v-109.6h0c0-29.4-11.4-57-32.1-77.7-20.7-20.7-48.3-32.1-77.6-32.1s-56.9,11.4-77.6,32.1c-20.7,20.7-32.1,48.3-32.1,77.6s11.4,56.9,32.1,77.6c20.7,20.7,48.3,32.1,77.6,32.1h.5s0,0,.1,0h109Z"/>
        <path class="st4" d="M-1070.6,662.6h.5c29.3,0,56.9-11.4,77.6-32.1,20.7-20.7,32.1-48.3,32.1-77.6s-11.4-56.9-32.1-77.6c-20.7-20.7-48.3-32.1-77.6-32.1s-56.9,11.4-77.6,32.1c-20.7,20.7-32.1,48.3-32.1,77.6h0v109.7h109s0,0,.1,0Z"/>
        <path class="st7" d="M-881.2,553h0c0-104.7-84.9-189.5-189.5-189.5h0c-60.6,0-114.6,28.5-149.3,72.8,6.6,8.4,12.4,17.3,17.5,26.8,5.5-8.1,11.9-15.7,18.9-22.8,30.1-30.1,70.2-46.7,112.8-46.7s82.7,16.6,112.8,46.7c30.1,30.1,46.7,70.2,46.7,112.8s-16.6,82.7-46.7,112.8c-7.2,7.2-15,13.7-23.3,19.3,9.5,5.1,18.4,10.9,26.9,17.5,44.5-34.7,73.1-88.8,73.1-149.6Z"/>
        <path class="st7" d="M-1230.2,552.9h0c0-19.5,3.5-38.5,10.2-56.3-4.5-11.8-10.3-23.1-17.5-33.6-3.9,7.1-7.3,14.5-10.2,22.2,11.1,20.1,17.5,43.1,17.5,67.7Z"/>
        <path class="st7" d="M-1070,712.5c24.5,0,47.5,6.3,67.5,17.4,7.3-2.8,14.5-6.1,21.4-9.8-10.6-7.2-22-13.1-33.9-17.5-17.5,6.5-36.2,9.9-55.5,9.9h.5Z"/>
        <path class="st7" d="M-1070.7,742.5c0,0,0,0,.1,0h-109.2s109,0,109,0Z"/>
        <path class="st7" d="M-1179.8,692.6h0s109.2,0,109.2,0c0,0-.1,0-.2,0h-109Z"/>
        <path class="st7" d="M-1179.8,552.9c0-29.3,11.4-56.9,32.1-77.6,20.7-20.7,48.3-32.1,77.6-32.1s56.9,11.4,77.6,32.1c20.7,20.7,32.1,48.3,32.1,77.6s-11.4,56.9-32.1,77.6c-20.7,20.7-48.3,32.1-77.6,32.1h-.5c24,0,46.9,4.5,68,12.6,43.1-23.8,72.2-69.7,72.2-122.4h0c0-77.2-62.6-139.7-139.7-139.7h0c-52.6,0-98.4,29.1-122.2,72,8.1,21.1,12.5,43.9,12.5,67.8h0Z"/>
        <path class="st7" d="M-1369.3,662.6s0,0-.1,0h109.2s-109,0-109,0Z"/>
        <polygon class="st7" points="-1179.8 742.5 -1179.8 742.5 -1179.8 852.2 -1179.8 852.1 -1179.8 742.5"/>
        <path class="st7" d="M-1209.8,852.2h0c0,19.5-3.5,38.5-10.2,56.3,4.5,11.8,10.3,23.1,17.5,33.6,3.9-7.1,7.3-14.5,10.2-22.2-11.1-20.1-17.5-43.1-17.5-67.7Z"/>
        <path class="st7" d="M-1256.5,964.9c-30.1,30.1-70.2,46.7-112.8,46.7s-82.7-16.6-112.8-46.7c-30.1-30.1-46.7-70.2-46.7-112.8s16.6-82.7,46.7-112.8c7.2-7.2,15-13.7,23.3-19.3-9.5-5.1-18.4-10.9-26.9-17.5-44.5,34.7-73.1,88.8-73.1,149.6h0c0,104.7,84.9,189.5,189.5,189.5h0c60.6,0,114.6-28.5,149.3-72.8-6.6-8.4-12.4-17.3-17.5-26.8-5.5,8.1-11.9,15.7-18.9,22.8Z"/>
        <path class="st7" d="M-1370,692.6c-24.5,0-47.5-6.3-67.5-17.4-7.3,2.8-14.5,6.1-21.4,9.8,10.6,7.2,22,13.1,33.9,17.5,17.5-6.5,36.3-9.9,55.5-9.9h-.5Z"/>
        <path class="st7" d="M-1260.2,852.2c0,29.3-11.4,56.9-32.1,77.6-20.7,20.7-48.3,32.1-77.6,32.1s-56.9-11.4-77.6-32.1c-20.7-20.7-32.1-48.3-32.1-77.6s11.4-56.9,32.1-77.6c20.7-20.7,48.3-32.1,77.6-32.1h.7c-24,0-47-4.5-68.2-12.6-43.1,23.8-72.2,69.7-72.2,122.4h0c0,77.2,62.6,139.7,139.7,139.7h0c52.6,0,98.4-29.1,122.2-72-8.1-21.1-12.5-43.9-12.5-67.8h0Z"/>
        <path class="st9" d="M-1482.1,665.8c-30.1-30.1-46.7-70.2-46.7-112.8s16.6-82.7,46.7-112.8c30.1-30.1,70.2-46.7,112.8-46.7s82.7,16.6,112.8,46.7c7.1,7.1,13.4,14.7,18.9,22.8,5.1-9.4,11-18.4,17.5-26.8-34.7-44.3-88.7-72.8-149.3-72.8h0c-104.7,0-189.5,84.9-189.5,189.5h0c0,60.8,28.6,114.9,73.1,149.6,8.4-6.6,17.4-12.4,26.9-17.5-8.3-5.6-16.1-12.1-23.3-19.3Z"/>
        <path class="st9" d="M-1370,712.5h.7c-19.3,0-38.1-3.4-55.7-9.9-11.9,4.4-23.3,10.3-33.9,17.5,6.9,3.7,14,7,21.4,9.8,20-11.1,43-17.4,67.5-17.4Z"/>
        <path class="st9" d="M-1209.8,553h0c0-24.7,6.4-47.8,17.5-67.8-2.9-7.6-6.3-15.1-10.2-22.2-7.2,10.5-13.1,21.8-17.5,33.6,6.7,17.8,10.2,36.8,10.2,56.4Z"/>
        <rect class="st9" x="-1230.2" y="712.5" width="20.5" height="30"/>
        <path class="st3" d="M-1220,496.6c4.5-11.8,10.3-23.1,17.5-33.6-5.1-9.4-11-18.4-17.5-26.8-6.6,8.4-12.4,17.3-17.5,26.8,7.2,10.5,13.1,21.8,17.5,33.6Z"/>
        <path class="st3" d="M-1179.8,662.6v-109.6c0-23.9-4.4-46.8-12.5-67.8-11.1,20.1-17.5,43.1-17.5,67.7h0v109.7h30Z"/>
        <path class="st3" d="M-1424.9,702.6c-11.9-4.4-23.3-10.3-33.9-17.5-9.5,5.1-18.4,10.9-26.9,17.5,8.4,6.6,17.4,12.4,26.9,17.5,10.6-7.2,22-13.1,33.9-17.5Z"/>
        <rect class="st7" x="-1209.8" y="692.6" width="30" height="19.9"/>
        <rect class="st9" x="-1179.8" y="742.5" width="0" height="0"/>
        <rect class="st9" x="-1209.8" y="692.6" width="30" height="0"/>
        <path class="st3" d="M-1260.2,742.5v-30h-109.7c-24.5,0-47.5,6.3-67.5,17.4,21.2,8.2,44.1,12.6,68.2,12.6h109Z"/>
        <path class="st9" d="M-1369.3,692.6c0,0-.1,0-.2,0h109.2s-109,0-109,0Z"/>
        <path class="st9" d="M-1370,662.6c-29.3,0-56.9-11.4-77.6-32.1-20.7-20.7-32.1-48.3-32.1-77.6s11.4-56.9,32.1-77.6c20.7-20.7,48.3-32.1,77.6-32.1s56.9,11.4,77.6,32.1c20.7,20.7,32.1,48.3,32.1,77.6h0c0-23.8,4.4-46.7,12.5-67.7-23.8-42.9-69.6-72-122.2-72h0c-77.2,0-139.7,62.6-139.7,139.7h0c0,52.7,29.2,98.6,72.2,122.4,21.1-8.1,44-12.6,68-12.6h-.5Z"/>
        <path class="st3" d="M-1260.2,662.6h30v-109.6h0c0-24.7-6.4-47.8-17.5-67.8-8.1,21.1-12.5,43.9-12.5,67.8v109.6Z"/>
        <path class="st3" d="M-1260.2,692.6v-30h-109.2c-24,0-46.9,4.5-68,12.6,20,11.1,43,17.4,67.5,17.4h.5c0,0,.1,0,.2,0h109Z"/>
        <path class="st9" d="M-1070.6,662.6s0,0-.1,0h-109s109.2,0,109.2,0Z"/>
        <path class="st9" d="M-1230.2,852.2c0,24.6-6.4,47.7-17.5,67.7,2.9,7.6,6.3,15,10.2,22.2,7.2-10.5,13.1-21.8,17.5-33.6-6.7-17.8-10.2-36.8-10.2-56.4h0Z"/>
        <path class="st9" d="M-957.9,739.3c30.1,30.1,46.7,70.2,46.7,112.8s-16.6,82.7-46.7,112.8c-30.1,30.1-70.2,46.7-112.8,46.7s-82.7-16.6-112.8-46.7c-7.1-7.1-13.4-14.7-18.9-22.8-5.1,9.4-11,18.4-17.5,26.8,34.7,44.3,88.7,72.8,149.3,72.8h0c104.7,0,189.5-84.9,189.5-189.5h0c0-60.8-28.6-114.9-73.1-149.6-8.4,6.6-17.4,12.4-26.9,17.5,8.3,5.6,16.1,12.1,23.3,19.3Z"/>
        <path class="st9" d="M-1070,692.6h-.5c19.3,0,38,3.4,55.5,9.9,11.9-4.4,23.3-10.3,33.9-17.5-6.9-3.7-14-7-21.4-9.8-20,11.1-43,17.4-67.5,17.4Z"/>
        <path class="st3" d="M-1015.1,702.6c11.9,4.4,23.3,10.3,33.9,17.5,9.5-5.1,18.4-10.9,26.9-17.5-8.4-6.6-17.4-12.4-26.9-17.5-10.6,7.2-22,13.1-33.9,17.5Z"/>
        <rect class="st7" x="-1260.2" y="692.6" width="30" height="19.9"/>
        <path class="st3" d="M-1179.8,662.6v30h109c0,0,.1,0,.2,0h.5c24.5,0,47.5-6.3,67.5-17.4-21.1-8.1-44-12.6-68-12.6h-109.2Z"/>
        <path class="st3" d="M-1220,908.6c-4.5,11.8-10.3,23.1-17.5,33.6,5.1,9.4,11,18.4,17.5,26.8,6.6-8.4,12.4-17.3,17.5-26.8-7.2-10.5-13.1-21.8-17.5-33.6Z"/>
        <rect class="st9" x="-1230.2" y="662.6" width="20.5" height="30"/>
        <path class="st3" d="M-1260.2,852.1c0,23.9,4.4,46.8,12.5,67.8,11.1-20.1,17.5-43.1,17.5-67.7h0v-109.7h-30v109.6Z"/>
        <polygon class="st3" points="-1179.8 692.6 -1179.8 662.6 -1179.8 662.6 -1209.8 662.6 -1209.8 692.6 -1179.8 692.6"/>
        <rect class="st3" x="-1260.2" y="712.5" width="30" height="30"/>
        <rect class="st9" x="-1260.2" y="692.6" width="30" height="0"/>
        <polygon class="st3" points="-1260.2 662.6 -1260.2 692.6 -1230.2 692.6 -1230.2 662.6 -1260.2 662.6 -1260.2 662.6"/>
        <polygon class="st9" points="-1209.8 742.5 -1209.8 742.5 -1209.8 852.2 -1209.8 852.1 -1209.8 742.5"/>
        <path class="st9" d="M-1070,742.5c29.3,0,56.9,11.4,77.6,32.1,20.7,20.7,32.1,48.3,32.1,77.6s-11.4,56.9-32.1,77.6c-20.7,20.7-48.3,32.1-77.6,32.1s-56.9-11.4-77.6-32.1c-20.7-20.7-32.1-48.3-32.1-77.6h0c0,23.8-4.4,46.7-12.5,67.7,23.8,42.9,69.6,72,122.2,72h0c77.2,0,139.7-62.6,139.7-139.7h0c0-52.7-29.2-98.6-72.2-122.4-21.1,8.1-44,12.6-68,12.6h.5Z"/>
        <rect class="st9" x="-1209.8" y="712.5" width="0" height="0"/>
        <path class="st9" d="M-1070.7,712.5c0,0,.1,0,.2,0h-109.2s109,0,109,0Z"/>
        <path class="st3" d="M-1179.8,712.5v30h109.2c24,0,46.9-4.5,68-12.6-20-11.1-43-17.4-67.5-17.4h-.5c0,0-.1,0-.2,0h-109Z"/>
        <path class="st3" d="M-1179.8,742.5h-30v109.6s0,0,0,0h0c0,24.7,6.4,47.8,17.5,67.8,8.1-21.1,12.5-43.9,12.5-67.8v-109.6Z"/>
        <rect class="st9" x="-1209.8" y="712.5" width="0" height="30"/>
        <rect class="st9" x="-1209.8" y="712.5" width="30" height="0"/>
        <polygon class="st3" points="-1179.8 742.5 -1179.8 742.5 -1179.8 742.5 -1179.8 712.5 -1209.8 712.5 -1209.8 742.5 -1179.8 742.5"/>
      </g>
    </g>
  </g>
  <g class="st5">
    <g>
      <path d="M286.7,1158.5c-3,.6-6.1,3.8-8.1,7.7l-29.8,60.4-70.1,142.8-63.1-128.2-38.4-77.5c-2.9-4.4-6.5-6.2-11.8-5.8-6,.4-11.8,4.4-11.8,11.5v226.6c-.1,8.4,4.1,14.7,12.4,15,7.8.2,13.4-5.4,13.4-14l.3-170.5,86.8,176.4c2.5,5.1,6.9,8,11.6,8.2,4.8.2,9.3-2.3,11.8-6.7,6.7-11.8,11.7-23.6,17.8-36l69.5-141.9.5,171c0,7.8,5,12.6,11.6,13.4,5.3.7,14-2.8,14-10l.2-228.7c0-4.7-1.5-8.7-4.5-11.7-3.2-3.1-7.7-3.1-12.4-2.1Z"/>
      <path d="M1624.2,1159.1c-5.6-2.2-12.7-1.4-15.6,3.8-3.2,5.7-4.2,11.6-6,18.1l-46.8,168.8c-5.7-16.1-8.9-31.1-13.2-47l-36-133.4c-1.9-7-6.7-11.4-13.5-11.2-6.4.2-10.5,4.3-12.3,11.1l-31.2,116.7-17.5,64-50.3-182c-2.2-7.9-8.6-11-15.8-9.7-5.8,1.1-11.2,7.7-9.2,14.9l29.2,106.7,33.6,121c1.9,6.9,7.3,10.5,13.5,10.3,6.5-.2,10.9-4.1,12.8-11.1l42-157.4c2.1-7.7,3-14.4,6.3-22.3l24.6,91.7,24.3,88.6c1.6,5.9,5.7,10,11.1,10.3,5.5.3,11.8-1.7,13.5-7.8l46.8-168.8,16.4-60.4c1.8-6.5-2.2-13.1-6.7-14.9Z"/>
      <path d="M1287.2,1272c30.6-24.6,28.8-67.3,1.9-92.4-27.5-23.1-69.2-19.9-91.9,8.1-20.1,24.9-16.7,64.4,10.2,85.2-9.4,4.9-15.4,10.5-21,18.1-19,25.6-19.4,60.3-2,87.1,12.9,19.8,33.7,31.8,57.9,32.6,10.5.3,20.2,0,29.9-3.3,28.9-9.8,49-36.9,50.5-67.1,1.5-28.2-10.6-53.4-35.6-68.3ZM1212.1,1212.6c6.1-17.8,24.8-27.5,42.8-23.9,19.1,3.8,30.8,20.5,29.3,39.6-1.4,17.5-13.5,32.1-32,33.8-18.8,1.8-35.7-9.1-40.7-26.9-2-7.1-1.7-15.6.7-22.6ZM1252.7,1387.5c-18.2,1.8-36-6.8-45.9-21.6-10.1-15.1-12.1-34.7-4.9-51.4,8.7-20,30.1-31.9,51.5-29.2,20.6,2.6,38.4,17.8,42.6,39.2,5.8,28.9-12.2,60-43.4,63Z"/>
      <path d="M461.6,1243.3c-17.2-6.8-35.9-7-53.6-2.8-15.2,3.6-27.9,11.1-39.1,21.8-32.3,30.8-35.7,80.1-9.1,115.6,17.3,23.2,43.9,34.8,73,33.3,20.4-1.1,40.2-8.8,54.4-23.5,5.3-5.5,4.6-13.5-.4-18.1-12.3-11.3-19.9,7-35.6,13.1-36.7,14.1-74.6-7.5-83-45.7l135.2-.3c7.7,0,12.4-5.3,12.4-12.8,0-35.1-21.3-67.6-54.1-80.6ZM368.5,1312.3c5.6-30,33-51.1,63.4-50,28.5,1,52.4,20.5,57.9,49.9h-121.3Z"/>
      <path d="M2132.2,1349.4l-39.3-44.8,70.9-46.1c5.8-3.8,8.6-9.8,5.7-16.1-2.3-5.1-8.9-8.8-15-6.9-6.1,1.9-11.1,5.6-16.5,9.1l-50.3,32.7-40.2,26.4-.6-25-.8-109.5c0-7.5-7-11.8-13.2-11.5-5.7.3-12,5.3-12,13l-.3,226.1c0,5.3,1.9,9,5.1,11.3,3.9,2.8,8.1,3.2,12.7,1.7,4.8-1.5,8-5.3,8.2-10.7.6-21,.5-41.6-.3-63.1l24.8-16.7,47,53,28.7,33.3c4.4,5.1,11.6,7,17.7,4.3,3.6-1.6,6.1-5,6.7-7.8,1-4.3-.2-7.8-3.3-11.2l-35.8-41.6Z"/>
      <path d="M944.9,1238.5c-44.9,6.5-77,45.8-74.4,91.7,1.9,32.6,21.8,61.7,52,74.5,30.6,13,72.8,6.8,96.1-19.6,1.9,5.3.4,9.3.9,13.9.8,6.9,5.8,11.6,12.6,11.7,5.5,0,12.8-3.8,12.8-10.8l-.2-80.6c-.1-51.8-49.4-88.1-99.9-80.8ZM1019.4,1326.7c-1,38.3-34.5,65.7-72,59.5-32.3-5.3-54.3-35.3-51-68.2,1.5-15.2,8.7-29,19.5-39.4,11.6-11.2,25.7-16,41.6-16,36.2,0,62.8,28.7,61.8,64.2Z"/>
      <path d="M1734.6,1237.9c-29.7,1.4-55.4,16.2-70.7,41.5-17.2,28.3-17.4,62.3,0,90.6,16.6,27.3,45.6,42.4,77.9,41.3,27.2-1,52.3-13.3,68.3-36.4,20.9-30.2,20.7-70.6.2-100.1-17.6-25.3-45.1-38.3-75.5-36.9ZM1784.3,1366.5c-13.8,15.5-31.8,22.3-53.4,19.9-29.2-3.3-51.6-27.3-53.5-56.1-1.4-20.5,5.6-40.3,21.1-53.2,12.5-10.4,27-15.2,43.2-14.4,12.7.7,24.9,4.4,34.9,12.4,28.2,22.6,31.6,64.7,7.8,91.4Z"/>
      <path d="M2342.7,1344c-4.5-9-13.5-14-22.5-17.8-18-7.6-36.2-12.4-54.8-18-9-2.7-31.1-7.7-34.3-15.3-4.1-9.8,8.7-19.5,17.3-24,24.2-12.7,56.3-6.5,73.3,16,4.8,6.3,14.5,7.5,20,1.4,3.6-4.1,3.4-10.5.2-14.9-17.9-25-48.3-36.8-78.7-32.5-18.5,2.6-35.4,10-47.7,24.1-9.2,10.5-13.6,24.8-8.9,38.2,4,11.4,13.8,18.7,24.9,23,22.4,8.5,65.2,18.6,80.9,26.1,3.2,1.5,6.6,3.6,7.6,7.2,1.5,5.3-.9,10.7-4.8,14.5-12.5,12.2-29.3,17-46.9,15.1-17-1.8-31.6-11.6-42.2-24.6-4.5-5.5-12.1-5-16.9-1-4.9,4-6.1,11.4-1.9,17,6.1,8.1,13.5,15.1,22.2,20.5,30.1,18.5,77.4,17.2,104-9.6,12-12.1,16.7-29.8,9-45.3Z"/>
      <path d="M629.5,1238.1c-19.1,1.4-36.1,7.7-49.6,22.3-4-2.9,3.5-18.4-12.2-21.8-5.1-1.1-14.8,2-14.8,9.6l-.3,150.8c0,7,6.1,11.3,11.6,11.9,5.2.5,13.8-2.3,13.8-9l.2-82.8c0-32,25.2-57.4,56.6-56.7,31.9.6,54.6,25.3,54.6,57v81.2c0,7.2,8.1,10.4,13.5,10.3,5.5-.1,12.2-4.2,12.2-10.9v-83.8c.2-46.4-39.8-81.5-85.7-78.1Z"/>
      <path d="M821.7,1386.4c-18.1,1.6-33.3-10.8-33.3-29.5v-94.1c9.9-.7,19.1.6,28.5-.6,6.8-.9,10.2-7.2,9.4-13.3-.7-5.7-5.1-10.5-11.6-10.6l-26.2-.3-.4-66.7c0-7.8-5.7-14.1-13-14-6.9,0-12.9,5.6-12.9,13.3l-.5,67.4-13.9.3c-6.3.1-10,4.3-10.7,10.2-1,7.8,3.8,13.7,11.9,14.2,4.1.2,8.5-.2,12.8.4l.6,97.8c.2,31.6,30.6,55.1,66.4,49.7,5-.8,8.2-4.5,9.2-7.7,1.4-4.4.3-8.3-2.4-11.8-3.2-4.1-8.6-5.1-13.8-4.6Z"/>
      <path d="M1980.9,1244.7c-24.4-11.7-60.7-9.1-81.8,9.9-2.8,2.5-4.9,5.1-8.5,6.6-.7-4.1,0-7.4-.4-11.2-.6-6.8-5.9-11.4-12.3-11.7-5-.2-13.1,3.2-13.1,9.8l-.7,148.9c0,4.6,1,8.4,4.1,10.9,2.8,2.2,6.2,3.5,10.4,3,5.2-.6,11.3-4,11.3-10l.6-85.8c.1-15.2,9.3-29.1,19.8-39,18.3-17.3,42.5-16.2,64.5-7.7,6.6,2.5,12.6-3.6,13.9-9.3,1.4-6.1-1.9-11.4-8-14.4Z"/>
      <path d="M1108.7,1385.9c-.4-16-.5-31.5,0-47.3.3-9.6.7-18.9.1-28.5-.6-9.7,0-18.6,0-28.4l.4-112.4c0-7.4-7.2-12-13-11.8-6.5.3-12.3,5.4-12.4,12.6l-.2,43.1.2,55v127.8c0,8.5,6.4,14.6,14.7,14.1,9.5-.6,18.7.8,28-.4,5.9-.7,8.4-7.1,7.9-12.1-1.4-14.9-16.5-9.5-25.8-11.8Z"/>
    </g>
    <path class="st4" d="M1489.7,869.4h0c0,77.2-62.6,139.7-139.7,139.7h0c-52.6,0-98.4-29.1-122.2-72-2.9,7.6-6.3,15.1-10.2,22.2,5.5,8.1,11.9,15.7,18.9,22.8,30.1,30.1,70.2,46.7,112.8,46.7s82.7-16.6,112.8-46.7c30.1-30.1,46.7-70.2,46.7-112.8s-16.6-82.7-46.7-112.8c-7.2-7.2-15-13.7-23.3-19.3-6.9,3.7-14,7-21.4,9.8,43.1,23.8,72.2,69.7,72.2,122.4Z"/>
    <path class="st4" d="M1050,759.7c-29.3,0-56.9,11.4-77.6,32.1-20.7,20.7-32.1,48.3-32.1,77.6s11.4,56.9,32.1,77.6c20.7,20.7,48.3,32.1,77.6,32.1s56.9-11.4,77.6-32.1c20.7-20.7,32.1-48.3,32.1-77.6h0v-109.7h-109.7Z"/>
    <path class="st4" d="M1350,430.3h0c77.2,0,139.7,62.6,139.7,139.7h0c0,52.7-29.2,98.6-72.2,122.4,7.3,2.8,14.5,6.1,21.4,9.8,8.3-5.6,16.1-12.1,23.3-19.3,30.1-30.1,46.7-70.2,46.7-112.8s-16.6-82.7-46.7-112.8c-30.1-30.1-70.2-46.7-112.8-46.7s-82.7,16.6-112.8,46.7c-7.1,7.1-13.4,14.7-18.9,22.8,3.9,7.1,7.3,14.5,10.2,22.2,23.8-42.9,69.6-72,122.2-72Z"/>
    <path class="st4" d="M1240.2,709.8v19.9h109.2c19.3,0,38-3.4,55.5-9.9-17.5-6.5-36.3-9.9-55.5-9.9h-109.2Z"/>
    <path class="st4" d="M1159.8,729.7v-19.9h-109.2c-19.3,0-38,3.4-55.5,9.9,17.6,6.5,36.3,9.9,55.7,9.9h109Z"/>
    <path class="st4" d="M1210.2,759.7h-20.5v109.6c0,19.6,3.5,38.6,10.2,56.4,6.7-17.8,10.2-36.8,10.2-56.4v-109.6Z"/>
    <path class="st4" d="M1189.8,679.8h20.5v-109.6c0-19.6-3.5-38.6-10.2-56.4-6.7,17.8-10.2,36.8-10.2,56.4v109.6Z"/>
    <path class="st4" d="M910.3,570.1h0c0-77.2,62.6-139.7,139.7-139.7h0c52.6,0,98.4,29.1,122.2,72,2.9-7.6,6.3-15.1,10.2-22.2-5.5-8.1-11.9-15.7-18.9-22.8-30.1-30.1-70.2-46.7-112.8-46.7s-82.7,16.6-112.8,46.7c-30.1,30.1-46.7,70.2-46.7,112.8s16.6,82.7,46.7,112.8c7.2,7.2,15,13.7,23.3,19.3,6.9-3.7,14-7,21.4-9.8-43.1-23.8-72.2-69.7-72.2-122.4Z"/>
    <path class="st4" d="M1050,1009.1h0c-77.2,0-139.7-62.6-139.7-139.7h0c0-52.7,29.2-98.6,72.2-122.4-7.3-2.8-14.5-6.1-21.4-9.8-8.3,5.6-16.1,12.1-23.3,19.3-30.1,30.1-46.7,70.2-46.7,112.8s16.6,82.7,46.7,112.8c30.1,30.1,70.2,46.7,112.8,46.7s82.7-16.6,112.8-46.7c7.1-7.1,13.4-14.7,18.9-22.8-3.9-7.1-7.3-14.5-10.2-22.2-23.8,42.9-69.6,72-122.2,72Z"/>
    <polygon class="st4" points="1189.8 709.8 1189.8 729.7 1210.2 729.7 1210.2 729.7 1210.2 729.7 1210.2 709.8 1210.2 709.8 1189.8 709.8 1189.8 709.8"/>
    <path class="st4" d="M1240.2,759.7v109.6s0,0,0,0h0c0,29.4,11.4,57,32.1,77.7,20.7,20.7,48.3,32.1,77.6,32.1s56.9-11.4,77.6-32.1c20.7-20.7,32.1-48.3,32.1-77.6s-11.4-56.9-32.1-77.6c-20.7-20.7-48.3-32.1-77.6-32.1h-.5s0,0-.1,0h-109Z"/>
    <path class="st4" d="M1159.8,679.8v-109.6h0c0-29.4-11.4-57-32.1-77.7-20.7-20.7-48.3-32.1-77.6-32.1s-56.9,11.4-77.6,32.1c-20.7,20.7-32.1,48.3-32.1,77.6s11.4,56.9,32.1,77.6c20.7,20.7,48.3,32.1,77.6,32.1h.5s0,0,.1,0h109Z"/>
    <path class="st4" d="M1349.4,679.8h.5c29.3,0,56.9-11.4,77.6-32.1,20.7-20.7,32.1-48.3,32.1-77.6s-11.4-56.9-32.1-77.6c-20.7-20.7-48.3-32.1-77.6-32.1s-56.9,11.4-77.6,32.1c-20.7,20.7-32.1,48.3-32.1,77.6h0v109.7h109s0,0,.1,0Z"/>
    <path class="st7" d="M1349.3,759.7c0,0,0,0,.1,0h-109.2s109,0,109,0Z"/>
    <path class="st7" d="M1240.2,709.8h0s109.2,0,109.2,0c0,0-.1,0-.2,0h-109Z"/>
    <path class="st7" d="M1050.7,679.8s0,0-.1,0h109.2s-109,0-109,0Z"/>
    <polygon class="st7" points="1240.2 759.7 1240.2 759.7 1240.2 869.3 1240.2 869.3 1240.2 759.7"/>
    <rect x="1189.8" y="729.7" width="20.5" height="30"/>
    <rect x="1210.2" y="709.8" width="30" height="19.9"/>
    <rect class="st9" x="1240.2" y="759.7" width="0" height="0"/>
    <rect class="st9" x="1210.2" y="709.8" width="30" height="0"/>
    <path class="st9" d="M1050.7,709.8c0,0-.1,0-.2,0h109.2s-109,0-109,0Z"/>
    <path d="M982.5,747c-7.3-2.8-14.5-6.1-21.4-9.8,10.6-7.2,22-13.1,33.9-17.5,17.6,6.5,36.3,9.9,55.7,9.9h-.7c-24.5,0-47.5,6.3-67.5,17.4ZM937.9,683c-30.1-30.1-46.7-70.2-46.7-112.8s16.6-82.7,46.7-112.8c30.1-30.1,70.2-46.7,112.8-46.7s82.7,16.6,112.8,46.7c7.1,7.1,13.4,14.7,18.9,22.8,5.1-9.4,11-18.4,17.5-26.8-34.7-44.3-88.7-72.8-149.3-72.8h0c-104.7,0-189.5,84.9-189.5,189.5h0c0,60.8,28.6,114.9,73.1,149.6,8.4-6.6,17.4-12.4,26.9-17.5-8.3-5.6-16.1-12.1-23.3-19.3ZM1200,513.7c4.5-11.8,10.3-23.1,17.5-33.6,3.9,7.1,7.3,14.5,10.2,22.2-11.1,20.1-17.5,43.1-17.5,67.7h0c0-19.5-3.5-38.5-10.2-56.3ZM1182.5,480.2c5.1-9.4,11-18.4,17.5-26.8,6.6,8.4,12.4,17.3,17.5,26.8-7.2,10.5-13.1,21.8-17.5,33.6-4.5-11.8-10.3-23.1-17.5-33.6ZM1210.2,679.8v-109.6h0c0-24.7,6.4-47.8,17.5-67.8,8.1,21.1,12.5,43.9,12.5,67.8v109.6h-30ZM1050.6,679.8c-24,0-46.9,4.5-68,12.6-43.1-23.8-72.2-69.7-72.2-122.4h0c0-77.2,62.6-139.7,139.7-139.7h0c52.6,0,98.4,29.1,122.2,72-8.1,21.1-12.5,43.9-12.5,67.8h0c0-29.4-11.4-57-32.1-77.7-20.7-20.7-48.3-32.1-77.6-32.1s-56.9,11.4-77.6,32.1c-20.7,20.7-32.1,48.3-32.1,77.6s11.4,56.9,32.1,77.6c20.7,20.7,48.3,32.1,77.6,32.1h.5ZM1159.8,570.2c0-23.9,4.4-46.8,12.5-67.8,11.1,20.1,17.5,43.1,17.5,67.7h0v109.7h-30v-109.6Z"/>
    <path d="M1227.7,937.1c-2.9,7.6-6.3,15.1-10.2,22.2-7.2-10.5-13.1-21.8-17.5-33.6,6.7-17.8,10.2-36.8,10.2-56.4h0c0,24.7,6.4,47.8,17.5,67.8ZM1163.5,982.1c-30.1,30.1-70.2,46.7-112.8,46.7s-82.7-16.6-112.8-46.7c-30.1-30.1-46.7-70.2-46.7-112.8s16.6-82.7,46.7-112.8c7.2-7.2,15-13.7,23.3-19.3-9.5-5.1-18.4-10.9-26.9-17.5-44.5,34.7-73.1,88.8-73.1,149.6h0c0,104.7,84.9,189.5,189.5,189.5h0c60.6,0,114.6-28.5,149.3-72.8-6.6-8.4-12.4-17.3-17.5-26.8-5.5,8.1-11.9,15.7-18.9,22.8ZM1050.6,709.8c-19.3,0-38,3.4-55.5,9.9-11.9-4.4-23.3-10.3-33.9-17.5,6.9-3.7,14-7,21.4-9.8,20,11.1,43,17.4,67.5,17.4h.5ZM1159.8,869.3c0,23.9,4.4,46.8,12.5,67.8-23.8,42.9-69.6,72-122.2,72h0c-77.2,0-139.7-62.6-139.7-139.7h0c0-52.7,29.2-98.6,72.2-122.4,21.2,8.2,44.1,12.6,68.2,12.6h-.7c-29.3,0-56.9,11.4-77.6,32.1-20.7,20.7-32.1,48.3-32.1,77.6s11.4,56.9,32.1,77.6c20.7,20.7,48.3,32.1,77.6,32.1s56.9-11.4,77.6-32.1c20.7-20.7,32.1-48.3,32.1-77.6h0ZM961.2,737.2c-9.5-5.1-18.4-10.9-26.9-17.5,8.4-6.6,17.4-12.4,26.9-17.5,10.6,7.2,22,13.1,33.9,17.5-11.9,4.4-23.3,10.3-33.9,17.5ZM1050.7,759.7c-24,0-47-4.5-68.2-12.6,20-11.1,43-17.4,67.5-17.4h109.7v30h-109ZM1050.7,709.8c0,0-.1,0-.2,0h-.5c-24.5,0-47.5-6.3-67.5-17.4,21.1-8.1,44-12.6,68-12.6h109.2v30h-109Z"/>
    <path class="st9" d="M1349.4,679.8s0,0-.1,0h-109s109.2,0,109.2,0Z"/>
    <rect x="1159.8" y="709.8" width="30" height="19.9"/>
    <rect x="1189.8" y="679.8" width="20.5" height="30"/>
    <polygon points="1240.2 709.8 1240.2 679.8 1240.2 679.8 1210.2 679.8 1210.2 709.8 1240.2 709.8"/>
    <rect x="1159.8" y="729.7" width="30" height="30"/>
    <rect class="st9" x="1159.8" y="709.8" width="30" height="0"/>
    <polygon points="1159.8 679.8 1159.8 709.8 1189.8 709.8 1189.8 679.8 1159.8 679.8 1159.8 679.8"/>
    <polygon class="st9" points="1210.2 759.7 1210.2 759.7 1210.2 869.3 1210.2 869.3 1210.2 759.7"/>
    <rect class="st9" x="1210.2" y="729.7" width="0" height="0"/>
    <path class="st9" d="M1349.3,729.7c0,0,.1,0,.2,0h-109.2s109,0,109,0Z"/>
    <path d="M1172.3,502.3c2.9-7.6,6.3-15.1,10.2-22.2,7.2,10.5,13.1,21.8,17.5,33.6-6.7,17.8-10.2,36.8-10.2,56.4h0c0-24.7-6.4-47.8-17.5-67.8ZM1538.8,570.2h0c0-104.7-84.9-189.5-189.5-189.5h0c-60.6,0-114.6,28.5-149.3,72.8,6.6,8.4,12.4,17.3,17.5,26.8,5.5-8.1,11.9-15.7,18.9-22.8,30.1-30.1,70.2-46.7,112.8-46.7s82.7,16.6,112.8,46.7c30.1,30.1,46.7,70.2,46.7,112.8s-16.6,82.7-46.7,112.8c-7.2,7.2-15,13.7-23.3,19.3,9.5,5.1,18.4,10.9,26.9,17.5,44.5-34.7,73.1-88.8,73.1-149.6ZM1349.4,729.7c19.3,0,38-3.4,55.5-9.9,11.9,4.4,23.3,10.3,33.9,17.5-6.9,3.7-14,7-21.4,9.8-20-11.1-43-17.4-67.5-17.4h-.5ZM1240.2,570.2c0-23.9-4.4-46.8-12.5-67.8,23.8-42.9,69.6-72,122.2-72h0c77.2,0,139.7,62.6,139.7,139.7h0c0,52.7-29.2,98.6-72.2,122.4-21.1-8.1-44-12.6-68-12.6h.5c29.3,0,56.9-11.4,77.6-32.1,20.7-20.7,32.1-48.3,32.1-77.6s-11.4-56.9-32.1-77.6c-20.7-20.7-48.3-32.1-77.6-32.1s-56.9,11.4-77.6,32.1c-20.7,20.7-32.1,48.3-32.1,77.6h0ZM1438.8,702.2c9.5,5.1,18.4,10.9,26.9,17.5-8.4,6.6-17.4,12.4-26.9,17.5-10.6-7.2-22-13.1-33.9-17.5,11.9-4.4,23.3-10.3,33.9-17.5ZM1349.4,679.8c24,0,46.9,4.5,68,12.6-20,11.1-43,17.4-67.5,17.4h-.5c0,0-.1,0-.2,0h-109v-30h109.2ZM1349.3,729.7c0,0,.1,0,.2,0h.5c24.5,0,47.5,6.3,67.5,17.4-21.1,8.1-44,12.6-68,12.6h-109.2v-30h109Z"/>
    <path d="M1417.5,692.4c7.3,2.8,14.5,6.1,21.4,9.8-10.6,7.2-22,13.1-33.9,17.5-17.5-6.5-36.3-9.9-55.5-9.9h.5c24.5,0,47.5-6.3,67.5-17.4ZM1189.8,869.4c0,24.6-6.4,47.7-17.5,67.7,2.9,7.6,6.3,15,10.2,22.2,7.2-10.5,13.1-21.8,17.5-33.6-6.7-17.8-10.2-36.8-10.2-56.4h0ZM1438.8,737.2c9.5-5.1,18.4-10.9,26.9-17.5,44.5,34.7,73.1,88.8,73.1,149.6h0c0,104.7-84.9,189.5-189.5,189.5h0c-60.6,0-114.6-28.5-149.3-72.8,6.6-8.4,12.4-17.3,17.5-26.8,5.5,8.1,11.9,15.7,18.9,22.8,30.1,30.1,70.2,46.7,112.8,46.7s82.7-16.6,112.8-46.7c30.1-30.1,46.7-70.2,46.7-112.8s-16.6-82.7-46.7-112.8c-7.2-7.2-15-13.7-23.3-19.3ZM1217.5,959.3c-5.1,9.4-11,18.4-17.5,26.8-6.6-8.4-12.4-17.3-17.5-26.8,7.2-10.5,13.1-21.8,17.5-33.6,4.5,11.8,10.3,23.1,17.5,33.6ZM1159.8,759.7h30v109.6h0c0,24.7-6.4,47.8-17.5,67.8-8.1-21.1-12.5-43.9-12.5-67.8v-109.6ZM1349.4,759.7c24,0,46.9-4.5,68-12.6,43.1,23.8,72.2,69.7,72.2,122.4h0c0,77.2-62.6,139.7-139.7,139.7h0c-52.6,0-98.4-29.1-122.2-72,8.1-21.1,12.5-43.9,12.5-67.8h0c0,29.4,11.4,57,32.1,77.7,20.7,20.7,48.3,32.1,77.6,32.1s56.9-11.4,77.6-32.1c20.7-20.7,32.1-48.3,32.1-77.6s-11.4-56.9-32.1-77.6c-20.7-20.7-48.3-32.1-77.6-32.1h-.5ZM1240.2,869.3c0,23.9-4.4,46.8-12.5,67.8-11.1-20.1-17.5-43.1-17.5-67.7h0c0,0,0,0,0-.1v-109.6h30v109.6Z"/>
    <rect class="st9" x="1210.2" y="729.7" width="0" height="30"/>
    <rect class="st9" x="1210.2" y="729.7" width="30" height="0"/>
    <polygon points="1240.2 759.7 1240.2 759.7 1240.2 759.7 1240.2 729.7 1210.2 729.7 1210.2 759.7 1240.2 759.7"/>
  </g>
  <g class="st10">
    <g>
      <g>
        <path class="st1" d="M2706.7,1158.5c-3,.6-6.1,3.8-8.1,7.7l-29.8,60.4-70.1,142.8-63.1-128.2-38.4-77.5c-2.9-4.4-6.5-6.2-11.8-5.8-6,.4-11.8,4.4-11.8,11.5v226.6c-.1,8.4,4.1,14.7,12.4,15,7.8.2,13.4-5.4,13.4-14l.3-170.5,86.8,176.4c2.5,5.1,6.9,8,11.6,8.2,4.8.2,9.3-2.3,11.8-6.7,6.7-11.8,11.7-23.6,17.8-36l69.5-141.9.5,171c0,7.8,5,12.6,11.6,13.4,5.3.7,14-2.8,14-10l.2-228.7c0-4.7-1.5-8.7-4.5-11.7-3.2-3.1-7.7-3.1-12.4-2.1Z"/>
        <path class="st1" d="M4044.2,1159.1c-5.6-2.2-12.7-1.4-15.6,3.8-3.2,5.7-4.2,11.6-6,18.1l-46.8,168.8c-5.7-16.1-8.9-31.1-13.2-47l-36-133.4c-1.9-7-6.7-11.4-13.5-11.2-6.4.2-10.5,4.3-12.3,11.1l-31.2,116.7-17.5,64-50.3-182c-2.2-7.9-8.6-11-15.8-9.7-5.8,1.1-11.2,7.7-9.2,14.9l29.2,106.7,33.6,121c1.9,6.9,7.3,10.5,13.5,10.3,6.5-.2,10.9-4.1,12.8-11.1l42-157.4c2.1-7.7,3-14.4,6.3-22.3l24.6,91.7,24.3,88.6c1.6,5.9,5.7,10,11.1,10.3,5.5.3,11.8-1.7,13.5-7.8l46.8-168.8,16.4-60.4c1.8-6.5-2.2-13.1-6.7-14.9Z"/>
        <path class="st1" d="M3707.2,1272c30.6-24.6,28.8-67.3,1.9-92.4-27.5-23.1-69.2-19.9-91.9,8.1-20.1,24.9-16.7,64.4,10.2,85.2-9.4,4.9-15.4,10.5-21,18.1-19,25.6-19.4,60.3-2,87.1,12.9,19.8,33.7,31.8,57.9,32.6,10.5.3,20.2,0,29.9-3.3,28.9-9.8,49-36.9,50.5-67.1,1.5-28.2-10.6-53.4-35.6-68.3ZM3632.1,1212.6c6.1-17.8,24.8-27.5,42.8-23.9,19.1,3.8,30.8,20.5,29.3,39.6-1.4,17.5-13.5,32.1-32,33.8-18.8,1.8-35.7-9.1-40.7-26.9-2-7.1-1.7-15.6.7-22.6ZM3672.7,1387.5c-18.2,1.8-36-6.8-45.9-21.6-10.1-15.1-12.1-34.7-4.9-51.4,8.7-20,30.1-31.9,51.5-29.2,20.6,2.6,38.4,17.8,42.6,39.2,5.8,28.9-12.2,60-43.4,63Z"/>
        <path class="st1" d="M2881.6,1243.3c-17.2-6.8-35.9-7-53.6-2.8-15.2,3.6-27.9,11.1-39.1,21.8-32.3,30.8-35.7,80.1-9.1,115.6,17.3,23.2,43.9,34.8,73,33.3,20.4-1.1,40.2-8.8,54.4-23.5,5.3-5.5,4.6-13.5-.4-18.1-12.3-11.3-19.9,7-35.6,13.1-36.7,14.1-74.6-7.5-83-45.7l135.2-.3c7.7,0,12.4-5.3,12.4-12.8,0-35.1-21.3-67.6-54.1-80.6ZM2788.5,1312.3c5.6-30,33-51.1,63.4-50,28.5,1,52.4,20.5,57.9,49.9h-121.3Z"/>
        <path class="st1" d="M4552.2,1349.4l-39.3-44.8,70.9-46.1c5.8-3.8,8.6-9.8,5.7-16.1-2.3-5.1-8.9-8.8-15-6.9-6.1,1.9-11.1,5.6-16.5,9.1l-50.3,32.7-40.2,26.4-.6-25-.8-109.5c0-7.5-7-11.8-13.2-11.5-5.7.3-12,5.3-12,13l-.3,226.1c0,5.3,1.9,9,5.1,11.3,3.9,2.8,8.1,3.2,12.7,1.7,4.8-1.5,8-5.3,8.2-10.7.6-21,.5-41.6-.3-63.1l24.8-16.7,47,53,28.7,33.3c4.4,5.1,11.6,7,17.7,4.3,3.6-1.6,6.1-5,6.7-7.8,1-4.3-.2-7.8-3.3-11.2l-35.8-41.6Z"/>
        <path class="st1" d="M3364.9,1238.5c-44.9,6.5-77,45.8-74.4,91.7,1.9,32.6,21.8,61.7,52,74.5,30.6,13,72.8,6.8,96.1-19.6,1.9,5.3.4,9.3.9,13.9.8,6.9,5.8,11.6,12.6,11.7,5.5,0,12.8-3.8,12.8-10.8l-.2-80.6c-.1-51.8-49.4-88.1-99.9-80.8ZM3439.4,1326.7c-1,38.3-34.5,65.7-72,59.5-32.3-5.3-54.3-35.3-51-68.2,1.5-15.2,8.7-29,19.5-39.4,11.6-11.2,25.7-16,41.6-16,36.2,0,62.8,28.7,61.8,64.2Z"/>
        <path class="st1" d="M4154.6,1237.9c-29.7,1.4-55.4,16.2-70.7,41.5-17.2,28.3-17.4,62.3,0,90.6,16.6,27.3,45.6,42.4,77.9,41.3,27.2-1,52.3-13.3,68.3-36.4,20.9-30.2,20.7-70.6.2-100.1-17.6-25.3-45.1-38.3-75.5-36.9ZM4204.3,1366.5c-13.8,15.5-31.8,22.3-53.4,19.9-29.2-3.3-51.6-27.3-53.5-56.1-1.4-20.5,5.6-40.3,21.1-53.2,12.5-10.4,27-15.2,43.2-14.4,12.7.7,24.9,4.4,34.9,12.4,28.2,22.6,31.6,64.7,7.8,91.4Z"/>
        <path class="st1" d="M4762.7,1344c-4.5-9-13.5-14-22.5-17.8-18-7.6-36.2-12.4-54.8-18-9-2.7-31.1-7.7-34.3-15.3-4.1-9.8,8.7-19.5,17.3-24,24.2-12.7,56.3-6.5,73.3,16,4.8,6.3,14.5,7.5,20,1.4,3.6-4.1,3.4-10.5.2-14.9-17.9-25-48.3-36.8-78.7-32.5-18.5,2.6-35.4,10-47.7,24.1-9.2,10.5-13.6,24.8-8.9,38.2,4,11.4,13.8,18.7,24.9,23,22.4,8.5,65.2,18.6,80.9,26.1,3.2,1.5,6.6,3.6,7.6,7.2,1.5,5.3-.9,10.7-4.8,14.5-12.5,12.2-29.3,17-46.9,15.1-17-1.8-31.6-11.6-42.2-24.6-4.5-5.5-12.1-5-16.9-1-4.9,4-6.1,11.4-1.9,17,6.1,8.1,13.5,15.1,22.2,20.5,30.1,18.5,77.4,17.2,104-9.6,12-12.1,16.7-29.8,9-45.3Z"/>
        <path class="st1" d="M3049.5,1238.1c-19.1,1.4-36.1,7.7-49.6,22.3-4-2.9,3.5-18.4-12.2-21.8-5.1-1.1-14.8,2-14.8,9.6l-.3,150.8c0,7,6.1,11.3,11.6,11.9,5.2.5,13.8-2.3,13.8-9l.2-82.8c0-32,25.2-57.4,56.6-56.7,31.9.6,54.6,25.3,54.6,57v81.2c0,7.2,8.1,10.4,13.5,10.3,5.5-.1,12.2-4.2,12.2-10.9v-83.8c.2-46.4-39.8-81.5-85.7-78.1Z"/>
        <path class="st1" d="M3241.7,1386.4c-18.1,1.6-33.3-10.8-33.3-29.5v-94.1c9.9-.7,19.1.6,28.5-.6,6.8-.9,10.2-7.2,9.4-13.3-.7-5.7-5.1-10.5-11.6-10.6l-26.2-.3-.4-66.7c0-7.8-5.7-14.1-13-14-6.9,0-12.9,5.6-12.9,13.3l-.5,67.4-13.9.3c-6.3.1-10,4.3-10.7,10.2-1,7.8,3.8,13.7,11.9,14.2,4.1.2,8.5-.2,12.8.4l.6,97.8c.2,31.6,30.6,55.1,66.4,49.7,5-.8,8.2-4.5,9.2-7.7,1.4-4.4.3-8.3-2.4-11.8-3.2-4.1-8.6-5.1-13.8-4.6Z"/>
        <path class="st1" d="M4400.9,1244.7c-24.4-11.7-60.7-9.1-81.8,9.9-2.8,2.5-4.9,5.1-8.5,6.6-.7-4.1,0-7.4-.4-11.2-.6-6.8-5.9-11.4-12.3-11.7-5-.2-13.1,3.2-13.1,9.8l-.7,148.9c0,4.6,1,8.4,4.1,10.9,2.8,2.2,6.2,3.5,10.4,3,5.2-.6,11.3-4,11.3-10l.6-85.8c.1-15.2,9.3-29.1,19.8-39,18.3-17.3,42.5-16.2,64.5-7.7,6.6,2.5,12.6-3.6,13.9-9.3,1.4-6.1-1.9-11.4-8-14.4Z"/>
        <path class="st1" d="M3528.7,1385.9c-.4-16-.5-31.5,0-47.3.3-9.6.7-18.9.1-28.5-.6-9.7,0-18.6,0-28.4l.4-112.4c0-7.4-7.2-12-13-11.8-6.5.3-12.3,5.4-12.4,12.6l-.2,43.1.2,55v127.8c0,8.5,6.4,14.6,14.7,14.1,9.5-.6,18.7.8,28-.4,5.9-.7,8.4-7.1,7.9-12.1-1.4-14.9-16.5-9.5-25.8-11.8Z"/>
      </g>
      <path class="st4" d="M3909.7,869.4h0c0,77.2-62.6,139.7-139.7,139.7h0c-52.6,0-98.4-29.1-122.2-72-2.9,7.6-6.3,15.1-10.2,22.2,5.5,8.1,11.9,15.7,18.9,22.8,30.1,30.1,70.2,46.7,112.8,46.7s82.7-16.6,112.8-46.7c30.1-30.1,46.7-70.2,46.7-112.8s-16.6-82.7-46.7-112.8c-7.2-7.2-15-13.7-23.3-19.3-6.9,3.7-14,7-21.4,9.8,43.1,23.8,72.2,69.7,72.2,122.4Z"/>
      <path class="st4" d="M3470,759.7c-29.3,0-56.9,11.4-77.6,32.1-20.7,20.7-32.1,48.3-32.1,77.6s11.4,56.9,32.1,77.6c20.7,20.7,48.3,32.1,77.6,32.1s56.9-11.4,77.6-32.1c20.7-20.7,32.1-48.3,32.1-77.6h0v-109.7h-109.7Z"/>
      <path class="st4" d="M3770,430.3h0c77.2,0,139.7,62.6,139.7,139.7h0c0,52.7-29.2,98.6-72.2,122.4,7.3,2.8,14.5,6.1,21.4,9.8,8.3-5.6,16.1-12.1,23.3-19.3,30.1-30.1,46.7-70.2,46.7-112.8s-16.6-82.7-46.7-112.8c-30.1-30.1-70.2-46.7-112.8-46.7s-82.7,16.6-112.8,46.7c-7.1,7.1-13.4,14.7-18.9,22.8,3.9,7.1,7.3,14.5,10.2,22.2,23.8-42.9,69.6-72,122.2-72Z"/>
      <path class="st4" d="M3660.2,709.8v19.9h109.2c19.3,0,38-3.4,55.5-9.9-17.5-6.5-36.3-9.9-55.5-9.9h-109.2Z"/>
      <path class="st4" d="M3579.8,729.7v-19.9h-109.2c-19.3,0-38,3.4-55.5,9.9,17.6,6.5,36.3,9.9,55.7,9.9h109Z"/>
      <path class="st4" d="M3630.2,759.7h-20.5v109.6c0,19.6,3.5,38.6,10.2,56.4,6.7-17.8,10.2-36.8,10.2-56.4v-109.6Z"/>
      <path class="st4" d="M3609.8,679.8h20.5v-109.6c0-19.6-3.5-38.6-10.2-56.4-6.7,17.8-10.2,36.8-10.2,56.4v109.6Z"/>
      <path class="st4" d="M3330.3,570.1h0c0-77.2,62.6-139.7,139.7-139.7h0c52.6,0,98.4,29.1,122.2,72,2.9-7.6,6.3-15.1,10.2-22.2-5.5-8.1-11.9-15.7-18.9-22.8-30.1-30.1-70.2-46.7-112.8-46.7s-82.7,16.6-112.8,46.7c-30.1,30.1-46.7,70.2-46.7,112.8s16.6,82.7,46.7,112.8c7.2,7.2,15,13.7,23.3,19.3,6.9-3.7,14-7,21.4-9.8-43.1-23.8-72.2-69.7-72.2-122.4Z"/>
      <path class="st4" d="M3470,1009.1h0c-77.2,0-139.7-62.6-139.7-139.7h0c0-52.7,29.2-98.6,72.2-122.4-7.3-2.8-14.5-6.1-21.4-9.8-8.3,5.6-16.1,12.1-23.3,19.3-30.1,30.1-46.7,70.2-46.7,112.8s16.6,82.7,46.7,112.8c30.1,30.1,70.2,46.7,112.8,46.7s82.7-16.6,112.8-46.7c7.1-7.1,13.4-14.7,18.9-22.8-3.9-7.1-7.3-14.5-10.2-22.2-23.8,42.9-69.6,72-122.2,72Z"/>
      <polygon class="st4" points="3609.8 709.8 3609.8 729.7 3630.2 729.7 3630.2 729.7 3630.2 729.7 3630.2 709.8 3630.2 709.8 3609.8 709.8 3609.8 709.8"/>
      <path class="st4" d="M3660.2,759.7v109.6s0,0,0,0h0c0,29.4,11.4,57,32.1,77.7,20.7,20.7,48.3,32.1,77.6,32.1s56.9-11.4,77.6-32.1c20.7-20.7,32.1-48.3,32.1-77.6s-11.4-56.9-32.1-77.6c-20.7-20.7-48.3-32.1-77.6-32.1h-.5s0,0-.1,0h-109Z"/>
      <path class="st4" d="M3579.8,679.8v-109.6h0c0-29.4-11.4-57-32.1-77.7-20.7-20.7-48.3-32.1-77.6-32.1s-56.9,11.4-77.6,32.1c-20.7,20.7-32.1,48.3-32.1,77.6s11.4,56.9,32.1,77.6c20.7,20.7,48.3,32.1,77.6,32.1h.5s0,0,.1,0h109Z"/>
      <path class="st4" d="M3769.4,679.8h.5c29.3,0,56.9-11.4,77.6-32.1,20.7-20.7,32.1-48.3,32.1-77.6s-11.4-56.9-32.1-77.6c-20.7-20.7-48.3-32.1-77.6-32.1s-56.9,11.4-77.6,32.1c-20.7,20.7-32.1,48.3-32.1,77.6h0v109.7h109s0,0,.1,0Z"/>
      <path class="st7" d="M3769.3,759.7c0,0,0,0,.1,0h-109.2s109,0,109,0Z"/>
      <path class="st7" d="M3660.2,709.8h0s109.2,0,109.2,0c0,0-.1,0-.2,0h-109Z"/>
      <path class="st7" d="M3470.7,679.8s0,0-.1,0h109.2s-109,0-109,0Z"/>
      <polygon class="st7" points="3660.2 759.7 3660.2 759.7 3660.2 869.3 3660.2 869.3 3660.2 759.7"/>
      <rect class="st9" x="3660.2" y="759.7" width="0" height="0"/>
      <rect class="st9" x="3630.2" y="709.8" width="30" height="0"/>
      <path class="st9" d="M3470.7,709.8c0,0-.1,0-.2,0h109.2s-109,0-109,0Z"/>
      <path class="st9" d="M3769.4,679.8s0,0-.1,0h-109s109.2,0,109.2,0Z"/>
      <rect class="st9" x="3579.8" y="709.8" width="30" height="0"/>
      <polygon class="st9" points="3630.2 759.7 3630.2 759.7 3630.2 869.3 3630.2 869.3 3630.2 759.7"/>
      <rect class="st9" x="3630.2" y="729.7" width="0" height="0"/>
      <path class="st9" d="M3769.3,729.7c0,0,.1,0,.2,0h-109.2s109,0,109,0Z"/>
      <rect class="st9" x="3630.2" y="729.7" width="0" height="30"/>
      <rect class="st9" x="3630.2" y="729.7" width="30" height="0"/>
      <path class="st2" d="M3381.2,702.2c-9.5,5.1-18.4,10.9-26.9,17.5-44.5-34.7-73.1-88.8-73.1-149.6h0c0-104.7,84.9-189.5,189.5-189.5h0c60.6,0,114.6,28.5,149.3,72.8-6.6,8.4-12.4,17.3-17.5,26.8-5.5-8.1-11.9-15.7-18.9-22.8-30.1-30.1-70.2-46.7-112.8-46.7s-82.7,16.6-112.8,46.7c-30.1,30.1-46.7,70.2-46.7,112.8s16.6,82.7,46.7,112.8c7.2,7.2,15,13.7,23.3,19.3ZM3630.2,570.2h0c0-24.7,6.4-47.8,17.5-67.8-2.9-7.6-6.3-15.1-10.2-22.2-7.2,10.5-13.1,21.8-17.5,33.6,6.7,17.8,10.2,36.8,10.2,56.4ZM3620,513.7c4.5-11.8,10.3-23.1,17.5-33.6-5.1-9.4-11-18.4-17.5-26.8-6.6,8.4-12.4,17.3-17.5,26.8,7.2,10.5,13.1,21.8,17.5,33.6ZM3660.2,679.8v-109.6c0-23.9-4.4-46.8-12.5-67.8-11.1,20.1-17.5,43.1-17.5,67.7h0v109.7h30ZM3470,679.8c-29.3,0-56.9-11.4-77.6-32.1-20.7-20.7-32.1-48.3-32.1-77.6s11.4-56.9,32.1-77.6c20.7-20.7,48.3-32.1,77.6-32.1s56.9,11.4,77.6,32.1c20.7,20.7,32.1,48.3,32.1,77.6h0c0-23.8,4.4-46.7,12.5-67.7-23.8-42.9-69.6-72-122.2-72h0c-77.2,0-139.7,62.6-139.7,139.7h0c0,52.7,29.2,98.6,72.2,122.4,21.1-8.1,44-12.6,68-12.6h-.5ZM3579.8,679.8h30v-109.6h0c0-24.7-6.4-47.8-17.5-67.8-8.1,21.1-12.5,43.9-12.5,67.8v109.6ZM3470,729.7h.7c-19.3,0-38.1-3.4-55.7-9.9-11.9,4.4-23.3,10.3-33.9,17.5,6.9,3.7,14,7,21.4,9.8,20-11.1,43-17.4,67.5-17.4ZM3609.8,709.8h-30v19.9h30v-19.9Z"/>
      <path class="st0" d="M3885.7,719.7c-8.4-6.6-17.4-12.4-26.9-17.5,8.3-5.6,16.1-12.1,23.3-19.3,30.1-30.1,46.7-70.2,46.7-112.8s-16.6-82.7-46.7-112.8c-30.1-30.1-70.2-46.7-112.8-46.7s-82.7,16.6-112.8,46.7c-7.1,7.1-13.4,14.7-18.9,22.8-5.1-9.4-11-18.4-17.5-26.8,34.7-44.3,88.7-72.8,149.3-72.8h0c104.7,0,189.5,84.9,189.5,189.5h0c0,60.8-28.6,114.9-73.1,149.6ZM3770,729.7c24.5,0,47.5,6.3,67.5,17.4,7.3-2.8,14.5-6.1,21.4-9.8-10.6-7.2-22-13.1-33.9-17.5-17.5,6.5-36.2,9.9-55.5,9.9h.5ZM3660.2,570.1c0-29.3,11.4-56.9,32.1-77.6,20.7-20.7,48.3-32.1,77.6-32.1s56.9,11.4,77.6,32.1c20.7,20.7,32.1,48.3,32.1,77.6s-11.4,56.9-32.1,77.6c-20.7,20.7-48.3,32.1-77.6,32.1h-.5c24,0,46.9,4.5,68,12.6,43.1-23.8,72.2-69.7,72.2-122.4h0c0-77.2-62.6-139.7-139.7-139.7h0c-52.6,0-98.4,29.1-122.2,72,8.1,21.1,12.5,43.9,12.5,67.8h0ZM3824.9,719.7c11.9,4.4,23.3,10.3,33.9,17.5,9.5-5.1,18.4-10.9,26.9-17.5-8.4-6.6-17.4-12.4-26.9-17.5-10.6,7.2-22,13.1-33.9,17.5ZM3660.2,679.8v30h109c0,0,.1,0,.2,0h.5c24.5,0,47.5-6.3,67.5-17.4-21.1-8.1-44-12.6-68-12.6h-109.2ZM3660.2,729.7v30h109.2c24,0,46.9-4.5,68-12.6-20-11.1-43-17.4-67.5-17.4h-.5c0,0-.1,0-.2,0h-109ZM3609.8,570.1h0c0-19.5,3.5-38.5,10.2-56.3-4.5-11.8-10.3-23.1-17.5-33.6-3.9,7.1-7.3,14.5-10.2,22.2,11.1,20.1,17.5,43.1,17.5,67.7ZM3609.8,729.7v30h20.5v-30h-20.5ZM3660.2,709.8v-30h0s-30,0-30,0v30h30Z"/>
      <path class="st6" d="M3609.8,729.7v30h-30v-30h30ZM3583.5,982.1c-30.1,30.1-70.2,46.7-112.8,46.7s-82.7-16.6-112.8-46.7c-30.1-30.1-46.7-70.2-46.7-112.8s16.6-82.7,46.7-112.8c7.2-7.2,15-13.7,23.3-19.3-9.5-5.1-18.4-10.9-26.9-17.5-44.5,34.7-73.1,88.8-73.1,149.6h0c0,104.7,84.9,189.5,189.5,189.5h0c60.6,0,114.6-28.5,149.3-72.8-6.6-8.4-12.4-17.3-17.5-26.8-5.5,8.1-11.9,15.7-18.9,22.8ZM3470.6,709.8c-19.3,0-38,3.4-55.5,9.9-11.9-4.4-23.3-10.3-33.9-17.5,6.9-3.7,14-7,21.4-9.8,20,11.1,43,17.4,67.5,17.4h.5ZM3579.8,869.3c0,23.9,4.4,46.8,12.5,67.8-23.8,42.9-69.6,72-122.2,72h0c-77.2,0-139.7-62.6-139.7-139.7h0c0-52.7,29.2-98.6,72.2-122.4,21.2,8.2,44.1,12.6,68.2,12.6h-.7c-29.3,0-56.9,11.4-77.6,32.1-20.7,20.7-32.1,48.3-32.1,77.6s11.4,56.9,32.1,77.6c20.7,20.7,48.3,32.1,77.6,32.1s56.9-11.4,77.6-32.1c20.7-20.7,32.1-48.3,32.1-77.6h0ZM3381.2,737.2c-9.5-5.1-18.4-10.9-26.9-17.5,8.4-6.6,17.4-12.4,26.9-17.5,10.6,7.2,22,13.1,33.9,17.5-11.9,4.4-23.3,10.3-33.9,17.5ZM3470.7,759.7c-24,0-47-4.5-68.2-12.6,20-11.1,43-17.4,67.5-17.4h109.7v30h-109ZM3470.7,709.8c0,0-.1,0-.2,0h-.5c-24.5,0-47.5-6.3-67.5-17.4,21.1-8.1,44-12.6,68-12.6h109.2v30h-109ZM3647.7,937.1c-2.9,7.6-6.3,15.1-10.2,22.2-7.2-10.5-13.1-21.8-17.5-33.6,6.7-17.8,10.2-36.8,10.2-56.4h0c0,24.7,6.4,47.8,17.5,67.8ZM3609.8,709.8v-30h20.5v30h-20.5ZM3579.8,679.8h30v30h-30v-30h0Z"/>
      <path class="st8" d="M3630.2,709.8h30v19.9h-30v-19.9ZM3609.8,869.4c0,24.6-6.4,47.7-17.5,67.7,2.9,7.6,6.3,15,10.2,22.2,7.2-10.5,13.1-21.8,17.5-33.6-6.7-17.8-10.2-36.8-10.2-56.4h0ZM3858.8,737.2c9.5-5.1,18.4-10.9,26.9-17.5,44.5,34.7,73.1,88.8,73.1,149.6h0c0,104.7-84.9,189.5-189.5,189.5h0c-60.6,0-114.6-28.5-149.3-72.8,6.6-8.4,12.4-17.3,17.5-26.8,5.5,8.1,11.9,15.7,18.9,22.8,30.1,30.1,70.2,46.7,112.8,46.7s82.7-16.6,112.8-46.7c30.1-30.1,46.7-70.2,46.7-112.8s-16.6-82.7-46.7-112.8c-7.2-7.2-15-13.7-23.3-19.3ZM3637.5,959.3c-5.1,9.4-11,18.4-17.5,26.8-6.6-8.4-12.4-17.3-17.5-26.8,7.2-10.5,13.1-21.8,17.5-33.6,4.5,11.8,10.3,23.1,17.5,33.6ZM3579.8,759.7h30v109.6h0c0,24.7-6.4,47.8-17.5,67.8-8.1-21.1-12.5-43.9-12.5-67.8v-109.6ZM3769.4,759.7c24,0,46.9-4.5,68-12.6,43.1,23.8,72.2,69.7,72.2,122.4h0c0,77.2-62.6,139.7-139.7,139.7h0c-52.6,0-98.4-29.1-122.2-72,8.1-21.1,12.5-43.9,12.5-67.8h0c0,29.4,11.4,57,32.1,77.7,20.7,20.7,48.3,32.1,77.6,32.1s56.9-11.4,77.6-32.1c20.7-20.7,32.1-48.3,32.1-77.6s-11.4-56.9-32.1-77.6c-20.7-20.7-48.3-32.1-77.6-32.1h-.5ZM3660.2,869.3c0,23.9-4.4,46.8-12.5,67.8-11.1-20.1-17.5-43.1-17.5-67.7h0c0,0,0,0,0-.1v-109.6h30v109.6ZM3837.5,692.4c7.3,2.8,14.5,6.1,21.4,9.8-10.6,7.2-22,13.1-33.9,17.5-17.5-6.5-36.3-9.9-55.5-9.9h.5c24.5,0,47.5-6.3,67.5-17.4ZM3660.2,759.7h0s0,0,0,0v-30h-30v30h30Z"/>
    </g>
  </g>
</svg>